<svg version="1.0" xmlns="http://www.w3.org/2000/svg"
 width="512.000000pt" height="512.000000pt" viewBox="0 0 512.000000 512.000000"
 preserveAspectRatio="xMidYMid meet">

<g transform="translate(0.000000,512.000000) scale(0.100000,-0.100000)"
fill="#000000" stroke="none">
<path d="M2080 4911 c-930 -68 -1687 -762 -1835 -1681 -8 -52 -15 -114 -15
-137 0 -46 -2 -49 -73 -94 -62 -41 -121 -123 -142 -202 -14 -54 -16 -116 -13
-512 l3 -450 27 -57 c34 -74 104 -147 170 -181 73 -37 158 -47 405 -47 l211 0
4 -192 3 -193 33 -70 c36 -76 103 -152 167 -189 90 -53 118 -56 534 -56 l386
0 255 -302 c140 -166 267 -310 282 -322 35 -25 115 -27 152 -3 14 9 141 153
282 320 l256 302 406 5 c398 5 408 6 465 28 86 35 175 122 218 214 l34 73 3
193 4 192 211 0 c243 0 331 10 403 45 65 32 138 109 172 183 l27 57 3 450 c3
396 1 458 -13 512 -21 79 -80 161 -142 202 -27 17 -53 35 -59 40 -6 5 -14 45
-18 90 -21 256 -123 564 -265 803 -275 461 -718 794 -1229 922 -206 52 -275
58 -757 61 -247 2 -497 0 -555 -4z m946 -301 c243 -20 441 -76 653 -185 476
-246 802 -693 896 -1226 25 -142 38 -129 -130 -129 l-145 0 0 95 c0 51 -5 118
-11 147 -33 155 -161 284 -317 317 -38 8 -444 11 -1412 11 -968 0 -1374 -3
-1412 -11 -152 -32 -273 -150 -314 -303 -8 -28 -14 -97 -14 -153 l0 -103 -145
0 c-168 0 -155 -12 -131 125 45 253 130 468 267 672 282 419 762 701 1265 742
147 12 802 13 950 1z m914 -1285 c63 -33 60 25 60 -1080 0 -1105 3 -1047 -60
-1080 -25 -13 -93 -15 -445 -15 -331 0 -422 -3 -449 -14 -23 -10 -99 -92 -256
-277 -123 -145 -226 -264 -230 -264 -4 0 -107 119 -230 264 -157 185 -233 267
-256 277 -27 11 -118 14 -448 14 -245 0 -425 4 -440 10 -14 5 -35 24 -46 42
-20 32 -20 51 -20 1041 0 880 2 1012 15 1037 33 63 -60 59 1423 60 1190 0
1357 -2 1382 -15z m-3120 -1016 l0 -460 -241 3 c-239 3 -241 3 -260 27 -18 22
-19 45 -19 433 l0 409 25 24 24 25 236 0 235 0 0 -461z m3975 436 l25 -24 0
-409 c0 -388 -1 -411 -19 -433 -19 -24 -21 -24 -260 -27 l-241 -3 0 460 0 461
235 0 236 0 24 -25z"/>
<path d="M1880 2767 c-101 -53 -107 -190 -10 -255 44 -30 121 -27 168 6 39 28
67 98 58 146 -12 65 -84 126 -149 126 -13 0 -43 -10 -67 -23z"/>
<path d="M3040 2767 c-101 -53 -107 -190 -10 -255 44 -30 121 -27 168 6 39 28
67 98 58 146 -12 65 -84 126 -149 126 -13 0 -43 -10 -67 -23z"/>
<path d="M1837 2118 c-39 -23 -77 -86 -77 -126 0 -64 43 -115 180 -213 139
-99 295 -165 464 -194 290 -50 594 40 858 254 58 47 98 108 98 151 0 45 -38
105 -81 129 -68 38 -109 28 -226 -60 -106 -80 -219 -138 -323 -166 -87 -23
-252 -23 -340 0 -96 25 -234 97 -334 173 -74 57 -95 68 -134 71 -36 3 -56 -2
-85 -19z"/>
</g>
</svg>
